# xmcd
#
# Track frame offsets: 
#        150
#        11307
#        25959
#        36921
#        46076
#        55915
#        67291
#        75132
#        85301
#        96265
#        107101
#        118255
#        133021
#        146635
#        159343
#        170300
#        183086
#        193530
#        205996
#        217123
#        226948
#        237616
#        249545
#        260693
#        271724
#        282085
#
# Disc length: 3909 seconds
#
# Revision: 0
# Processed by: cddbd v1.5.2PL0 Copyright (c) Steve Scherf et al.
# Submitted via: ExactAudioCopy v1.3
#
DISCID=700f431a
DTITLE=Various Artist - New Orleans Rhythm and Blues Volume 2 1947-1953
DYEAR=2011
DGENRE=R&B
TTITLE0=James Wayne - Junco Partner
TTITLE1=Clarence Garlow - Bon Ton Roula
TTITLE2=Archibald - Soon As I Go Home
TTITLE3=Royal Kings - Teachin' and Preachin'
TTITLE4=Fats Domino - Goin' Home 
TTITLE5=Lloyd Price - Lawdy Miss Clawdy
TTITLE6=Dave Bartholomew - Kiss Me Baby
TTITLE7=Papa Lightfoot - Jumpin' With Jarvis
TTITLE8=Smiley Lewis - The Bells Are Ringing
TTITLE9=Professor Longhair - Tipitina
TTITLE10=Sugar Boy Crawford - Overboard
TTITLE11=The Humming Four - Mother's Love
TTITLE12=Guitar Slim - The Things That I Used To Do
TTITLE13=Ray Charles - Feelin' Sad
TTITLE14=Sugar Boy Crawford - Jock-A-Mo
TTITLE15=Dave Bartholomew - Who Drank My Beer
TTITLE16=Smiley Lewis - Big Mamou
TTITLE17=Big Joe Turner - Oke-She-Moke-She-Pop
TTITLE18=Guitar Slim - I Done Got Over It
TTITLE19=Professor Longhair - Who's Been Foolin' You
TTITLE20=Shirley and Lee - Baby
TTITLE21=The Hawks - I-Yi
TTITLE22=Fat Man Mathews - Down The Line
TTITLE23=Jody Levens - Mardi Gras Mambo
TTITLE24=Bobby Mitchell - Rack 'Em Back
TTITLE25=Fats Domino - Going To The River
EXTD=
EXTT0=
EXTT1=
EXTT2=
EXTT3=
EXTT4=
EXTT5=
EXTT6=
EXTT7=
EXTT8=
EXTT9=
EXTT10=
EXTT11=
EXTT12=
EXTT13=
EXTT14=
EXTT15=
EXTT16=
EXTT17=
EXTT18=
EXTT19=
EXTT20=
EXTT21=
EXTT22=
EXTT23=
EXTT24=
EXTT25=
PLAYORDER=
